<svg xmlns:xlink="http://www.w3.org/1999/xlink" xmlns="http://www.w3.org/2000/svg" width="844pt" height="256pt" viewBox="0.00 0.00 844.00 256.00">
<g id="graph0" class="graph" transform="scale(1 1) rotate(0) translate(4 252)">
<title>d1e240</title>
<polygon style="fill:white;stroke:white;" points="-4,4 -4,-252 840,-252 840,4 -4,4"/>
<!-- http://d&#45;nb.info/gnd/118805193 -->
<g id="node1" class="node">
            <title>http://d-nb.info/gnd/118805193</title>
<a xlink:href="http://d-nb.info/gnd/118805193" xlink:title="foaf:Personcd:Recipient, cd:Sender:\nSoemmerring, Samuel Thomas">
<polygon style="fill:none;stroke:black;" points="219,-248 35,-248 35,-214 219,-214 219,-248"/>
<text text-anchor="middle" x="127" y="-235" style="font-family:Times New Roman;font-size:10.00px;fill:blue;">foaf:Personcd:Recipient, cd:Sender:</text>
<text text-anchor="middle" x="127" y="-222" style="font-family:Times New Roman;font-size:10.00px;fill:blue;">Soemmerring, Samuel Thomas</text>
</a>
</g>
<!-- http://d&#45;nb.info/gnd/118540238 -->
<g id="node3" class="node">
            <title>http://d-nb.info/gnd/118540238</title>
<a xlink:href="http://d-nb.info/gnd/118540238" xlink:title="cd:Sendercd:Recipient, foaf:Person:\nGoethe, Johann Wolfgang von, Johann Wolfgang von Goethe">
<polygon style="fill:none;stroke:black;" points="626,-172 328,-172 328,-138 626,-138 626,-172"/>
<text text-anchor="middle" x="477" y="-159" style="font-family:Times New Roman;font-size:10.00px;fill:blue;">cd:Sendercd:Recipient, foaf:Person:</text>
<text text-anchor="middle" x="477" y="-146" style="font-family:Times New Roman;font-size:10.00px;fill:blue;">Goethe, Johann Wolfgang von, Johann Wolfgang von Goethe</text>
</a>
</g>
<!-- http://d&#45;nb.info/gnd/118805193&#45;&gt;http://d&#45;nb.info/gnd/118540238 -->
<g id="edge2" class="edge">
            <title>http://d-nb.info/gnd/118805193-&gt;http://d-nb.info/gnd/118540238</title>
<path style="fill:none;stroke:blue;" d="M220,-224C251,-221 286,-216 317,-209 354,-201 393,-187 424,-176"/>
<polygon style="fill:blue;stroke:blue;" points="426.015,-178.964 434,-172 423.415,-172.464 426.015,-178.964"/>
<text text-anchor="middle" x="291" y="-220.5" style="font-family:Times New Roman;font-size:10.00px;">cd:sending</text>
</g>
<!-- http://d&#45;nb.info/gnd/118540238&#45;&gt;http://d&#45;nb.info/gnd/118805193 -->
<g id="edge12" class="edge">
            <title>http://d-nb.info/gnd/118540238-&gt;http://d-nb.info/gnd/118805193</title>
<path style="fill:none;stroke:blue;" d="M365,-172C333,-178 297,-184 265,-192 241,-197 215,-205 192,-211"/>
<polygon style="fill:blue;stroke:blue;" points="190.573,-207.774 182,-214 192.584,-214.479 190.573,-207.774"/>
<text text-anchor="middle" x="291" y="-195.5" style="font-family:Times New Roman;font-size:10.00px;">cd:sending</text>
</g>
<!-- http://d&#45;nb.info/gnd/122361261 -->
<g id="node8" class="node">
            <title>http://d-nb.info/gnd/122361261</title>
<a xlink:href="http://d-nb.info/gnd/122361261" xlink:title="foaf:Person, cd:Recipient:\nWeber, Genovefa">
<polygon style="fill:none;stroke:black;" points="836,-172 700,-172 700,-138 836,-138 836,-172"/>
<text text-anchor="middle" x="768" y="-159" style="font-family:Times New Roman;font-size:10.00px;fill:blue;">foaf:Person, cd:Recipient:</text>
<text text-anchor="middle" x="768" y="-146" style="font-family:Times New Roman;font-size:10.00px;fill:blue;">Weber, Genovefa</text>
</a>
</g>
<!-- http://d&#45;nb.info/gnd/118540238&#45;&gt;http://d&#45;nb.info/gnd/122361261 -->
<g id="edge10" class="edge">
            <title>http://d-nb.info/gnd/118540238-&gt;http://d-nb.info/gnd/122361261</title>
<path style="fill:none;stroke:blue;" d="M626,-155C648,-155 670,-155 690,-155"/>
<polygon style="fill:blue;stroke:blue;" points="690,-158.5 700,-155 690,-151.5 690,-158.5"/>
<text text-anchor="middle" x="663" y="-158.5" style="font-family:Times New Roman;font-size:10.00px;">cd:sending</text>
</g>
<!-- http://d&#45;nb.info/gnd/115363688 -->
<g id="node4" class="node">
            <title>http://d-nb.info/gnd/115363688</title>
<a xlink:href="http://d-nb.info/gnd/115363688" xlink:title="foaf:Person, cd:Sender:\nLuise Augusta Herzogin von Sachsen-Weimar und\nEisenach">
<polygon style="fill:none;stroke:black;" points="253,-183.5 1,-183.5 1,-136.5 253,-136.5 253,-183.5"/>
<text text-anchor="middle" x="127" y="-170.5" style="font-family:Times New Roman;font-size:10.00px;fill:blue;">foaf:Person, cd:Sender:</text>
<text text-anchor="middle" x="127" y="-157.5" style="font-family:Times New Roman;font-size:10.00px;fill:blue;">Luise Augusta Herzogin von Sachsen-Weimar und</text>
<text text-anchor="middle" x="127" y="-144.5" style="font-family:Times New Roman;font-size:10.00px;fill:blue;">Eisenach</text>
</a>
</g>
<!-- http://d&#45;nb.info/gnd/115363688&#45;&gt;http://d&#45;nb.info/gnd/118540238 -->
<g id="edge4" class="edge">
            <title>http://d-nb.info/gnd/115363688-&gt;http://d-nb.info/gnd/118540238</title>
<path style="fill:none;stroke:blue;" d="M254,-155C258,-155 261,-155 265,-155 282,-155 300,-154 318,-154"/>
<polygon style="fill:blue;stroke:blue;" points="318,-157.5 328,-154 318,-150.5 318,-157.5"/>
<text text-anchor="middle" x="291" y="-158.5" style="font-family:Times New Roman;font-size:10.00px;">cd:sending</text>
</g>
<!-- http://d&#45;nb.info/gnd/117158542 -->
<g id="node6" class="node">
            <title>http://d-nb.info/gnd/117158542</title>
<a xlink:href="http://d-nb.info/gnd/117158542" xlink:title="foaf:Person, cd:Sender:\nWeber, Franz Anton">
<polygon style="fill:none;stroke:black;" points="191,-115 63,-115 63,-81 191,-81 191,-115"/>
<text text-anchor="middle" x="127" y="-102" style="font-family:Times New Roman;font-size:10.00px;fill:blue;">foaf:Person, cd:Sender:</text>
<text text-anchor="middle" x="127" y="-89" style="font-family:Times New Roman;font-size:10.00px;fill:blue;">Weber, Franz Anton</text>
</a>
</g>
<!-- http://d&#45;nb.info/gnd/117158542&#45;&gt;http://d&#45;nb.info/gnd/118540238 -->
<g id="edge6" class="edge">
            <title>http://d-nb.info/gnd/117158542-&gt;http://d-nb.info/gnd/118540238</title>
<path style="fill:none;stroke:blue;" d="M191,-108C239,-116 306,-127 363,-136"/>
<polygon style="fill:blue;stroke:blue;" points="362.508,-139.471 373,-138 363.881,-132.607 362.508,-139.471"/>
<text text-anchor="middle" x="291" y="-130.5" style="font-family:Times New Roman;font-size:10.00px;">cd:sending</text>
</g>
<!-- http://d&#45;nb.info/gnd/118540246 -->
<g id="node9" class="node">
            <title>http://d-nb.info/gnd/118540246</title>
<a xlink:href="http://d-nb.info/gnd/118540246" xlink:title="foaf:Person, cd:Sender:\nGoethe, Katharina Elisabeth">
<polygon style="fill:none;stroke:black;" points="202,-59 52,-59 52,-25 202,-25 202,-59"/>
<text text-anchor="middle" x="127" y="-46" style="font-family:Times New Roman;font-size:10.00px;fill:blue;">foaf:Person, cd:Sender:</text>
<text text-anchor="middle" x="127" y="-33" style="font-family:Times New Roman;font-size:10.00px;fill:blue;">Goethe, Katharina Elisabeth</text>
</a>
</g>
<!-- http://d&#45;nb.info/gnd/118540246&#45;&gt;http://d&#45;nb.info/gnd/118540238 -->
<g id="edge8" class="edge">
            <title>http://d-nb.info/gnd/118540246-&gt;http://d-nb.info/gnd/118540238</title>
<path style="fill:none;stroke:blue;" d="M202,-56C219,-60 237,-65 254,-70 315,-88 384,-115 429,-134"/>
<polygon style="fill:blue;stroke:blue;" points="427.44,-137.137 438,-138 430.283,-130.74 427.44,-137.137"/>
<text text-anchor="middle" x="291" y="-90.5" style="font-family:Times New Roman;font-size:10.00px;">cd:sending</text>
</g>
</g>
</svg>